<?xml version="1.0" encoding="utf-8"?>
<svg xmlns="http://www.w3.org/2000/svg" xmlns:xlink="http://www.w3.org/1999/xlink" width="1000" height="667" viewBox="0 0 4000 2668">
<defs>
  <clipPath id="clip0000">
    <rect x="0" y="0" width="4000" height="2668"/>
  </clipPath>
</defs>
<polygon clip-path="url(#clip0000)" points="
0,2668 4000,2668 4000,0 0,0 
  " fill="#ffffff" fill-rule="evenodd" fill-opacity="1"/>
<defs>
  <clipPath id="clip0001">
    <rect x="800" y="0" width="2801" height="2668"/>
  </clipPath>
</defs>
<polygon clip-path="url(#clip0000)" points="
188.926,2545.87 3921.26,2545.87 3921.26,125.984 188.926,125.984 
  " fill="#ffffff" fill-rule="evenodd" fill-opacity="1"/>
<defs>
  <clipPath id="clip0002">
    <rect x="188" y="125" width="3733" height="2421"/>
  </clipPath>
</defs>
<polyline clip-path="url(#clip0000)" style="stroke:#000000; stroke-width:4; stroke-opacity:1; fill:none" points="
  188.926,2545.87 3921.26,2545.87 
  "/>
<polyline clip-path="url(#clip0000)" style="stroke:#000000; stroke-width:4; stroke-opacity:1; fill:none" points="
  188.926,2545.87 188.926,125.984 
  "/>
<polyline clip-path="url(#clip0000)" style="stroke:#000000; stroke-width:4; stroke-opacity:1; fill:none" points="
  276.864,2545.87 276.864,2509.57 
  "/>
<polyline clip-path="url(#clip0000)" style="stroke:#000000; stroke-width:4; stroke-opacity:1; fill:none" points="
  1161.55,2545.87 1161.55,2509.57 
  "/>
<polyline clip-path="url(#clip0000)" style="stroke:#000000; stroke-width:4; stroke-opacity:1; fill:none" points="
  2046.25,2545.87 2046.25,2509.57 
  "/>
<polyline clip-path="url(#clip0000)" style="stroke:#000000; stroke-width:4; stroke-opacity:1; fill:none" points="
  2930.94,2545.87 2930.94,2509.57 
  "/>
<polyline clip-path="url(#clip0000)" style="stroke:#000000; stroke-width:4; stroke-opacity:1; fill:none" points="
  3815.63,2545.87 3815.63,2509.57 
  "/>
<polyline clip-path="url(#clip0000)" style="stroke:#000000; stroke-width:4; stroke-opacity:1; fill:none" points="
  188.926,2535.74 244.911,2535.74 
  "/>
<polyline clip-path="url(#clip0000)" style="stroke:#000000; stroke-width:4; stroke-opacity:1; fill:none" points="
  188.926,1825.03 244.911,1825.03 
  "/>
<polyline clip-path="url(#clip0000)" style="stroke:#000000; stroke-width:4; stroke-opacity:1; fill:none" points="
  188.926,1114.31 244.911,1114.31 
  "/>
<polyline clip-path="url(#clip0000)" style="stroke:#000000; stroke-width:4; stroke-opacity:1; fill:none" points="
  188.926,403.597 244.911,403.597 
  "/>
<g clip-path="url(#clip0000)">
<text style="fill:#000000; fill-opacity:1; font-family:Times New Roman,TimesNewRoman,Times,Baskerville,Georgia,serif; font-size:118px; text-anchor:middle;" transform="rotate(0, 276.864, 2659.47)" x="276.864" y="2659.47">0</text>
</g>
<g clip-path="url(#clip0000)">
<text style="fill:#000000; fill-opacity:1; font-family:Times New Roman,TimesNewRoman,Times,Baskerville,Georgia,serif; font-size:118px; text-anchor:middle;" transform="rotate(0, 1161.55, 2659.47)" x="1161.55" y="2659.47">50</text>
</g>
<g clip-path="url(#clip0000)">
<text style="fill:#000000; fill-opacity:1; font-family:Times New Roman,TimesNewRoman,Times,Baskerville,Georgia,serif; font-size:118px; text-anchor:middle;" transform="rotate(0, 2046.25, 2659.47)" x="2046.25" y="2659.47">100</text>
</g>
<g clip-path="url(#clip0000)">
<text style="fill:#000000; fill-opacity:1; font-family:Times New Roman,TimesNewRoman,Times,Baskerville,Georgia,serif; font-size:118px; text-anchor:middle;" transform="rotate(0, 2930.94, 2659.47)" x="2930.94" y="2659.47">150</text>
</g>
<g clip-path="url(#clip0000)">
<text style="fill:#000000; fill-opacity:1; font-family:Times New Roman,TimesNewRoman,Times,Baskerville,Georgia,serif; font-size:118px; text-anchor:middle;" transform="rotate(0, 3815.63, 2659.47)" x="3815.63" y="2659.47">200</text>
</g>
<g clip-path="url(#clip0000)">
<text style="fill:#000000; fill-opacity:1; font-family:Times New Roman,TimesNewRoman,Times,Baskerville,Georgia,serif; font-size:118px; text-anchor:end;" transform="rotate(0, 148.926, 2574.74)" x="148.926" y="2574.74">-1</text>
</g>
<g clip-path="url(#clip0000)">
<text style="fill:#000000; fill-opacity:1; font-family:Times New Roman,TimesNewRoman,Times,Baskerville,Georgia,serif; font-size:118px; text-anchor:end;" transform="rotate(0, 148.926, 1864.03)" x="148.926" y="1864.03">0</text>
</g>
<g clip-path="url(#clip0000)">
<text style="fill:#000000; fill-opacity:1; font-family:Times New Roman,TimesNewRoman,Times,Baskerville,Georgia,serif; font-size:118px; text-anchor:end;" transform="rotate(0, 148.926, 1153.31)" x="148.926" y="1153.31">1</text>
</g>
<g clip-path="url(#clip0000)">
<text style="fill:#000000; fill-opacity:1; font-family:Times New Roman,TimesNewRoman,Times,Baskerville,Georgia,serif; font-size:118px; text-anchor:end;" transform="rotate(0, 148.926, 442.597)" x="148.926" y="442.597">2</text>
</g>
<g clip-path="url(#clip0000)">
<text style="fill:#000000; fill-opacity:1; font-family:Times New Roman,TimesNewRoman,Times,Baskerville,Georgia,serif; font-size:118px; text-anchor:middle;" transform="rotate(0, 2055.09, 93.6)" x="2055.09" y="93.6">Full reconstructions</text>
</g>
<polyline clip-path="url(#clip0002)" style="stroke:#009af9; stroke-width:4; stroke-opacity:1; fill:none" points="
  294.558,1480.5 312.252,1337.73 329.945,1117.01 347.639,926.44 365.333,1148.82 383.027,987.422 400.721,1240.64 418.415,1448.86 436.108,1498.88 453.802,1706.78 
  471.496,1841.64 489.19,2232.62 506.884,2206.17 524.577,2395.11 542.271,2462.91 559.965,2253.07 577.659,2339.76 595.353,2108.57 613.047,1721.54 630.74,1782.52 
  648.434,1324.21 666.128,1225.73 683.822,1181.12 701.516,984.19 719.209,992.484 736.903,944.279 754.597,1019.46 772.291,1288.13 789.985,1324.96 807.679,1663.02 
  825.372,1727.93 843.066,2065.26 860.76,2226.84 878.454,2157.44 896.148,2379.11 913.841,2194.15 931.535,2191.12 949.229,2038.6 966.923,1838.33 984.617,1691.19 
  1002.31,1358.31 1020,1179.83 1037.7,1089.25 1055.39,931.162 1073.09,985.395 1090.78,812.371 1108.47,1085.32 1126.17,1253.77 1143.86,1277.16 1161.55,1584.55 
  1179.25,1746.1 1196.94,1990.61 1214.64,2156.54 1232.33,2143.15 1250.02,2285.5 1267.72,2186.94 1285.41,2251.65 1303.11,1961.5 1320.8,1735.13 1338.49,1681.14 
  1356.19,1304.64 1373.88,1126.66 1391.57,986.897 1409.27,786.789 1426.96,1033.58 1444.66,821.025 1462.35,1131.61 1480.04,1119.24 1497.74,1090.93 1515.43,1636.33 
  1533.13,1581.23 1550.82,1767.19 1568.51,2040.04 1586.21,2083.3 1603.9,2241.84 1621.59,2125.73 1639.29,1982.22 1656.98,1800.95 1674.68,1572.97 1692.37,1552.13 
  1710.06,1109.21 1727.76,1118.67 1745.45,924.946 1763.14,741.134 1780.84,803.487 1798.53,681.549 1816.23,852.685 1833.92,1004.37 1851.61,1125.8 1869.31,1555.16 
  1887,1525.59 1904.7,1851.33 1922.39,2003.33 1940.08,1957.59 1957.78,2224.6 1975.47,2060.33 1993.16,1953.67 2010.86,1796.33 2028.55,1584.57 2046.25,1461.41 
  2063.94,989.098 2081.63,1017.8 2099.33,871.037 2117.02,656.804 2134.71,777.212 2152.41,611.264 2170.1,843.799 2187.8,878.279 2205.49,1102.97 2223.18,1485.13 
  2240.88,1645.96 2258.57,1881.16 2276.27,1948.89 2293.96,1877.26 2311.65,2143.42 2329.35,1943.74 2347.04,2029.46 2364.73,1638.19 2382.43,1409.29 2400.12,1455.41 
  2417.82,962.523 2435.51,960.119 2453.2,834.25 2470.9,611.065 2488.59,663.006 2506.29,687.96 2523.98,759.609 2541.67,932.083 2559.37,960.2 2577.06,1349.58 
  2594.75,1472.98 2612.45,1578.54 2630.14,1829.17 2647.84,1790.13 2665.53,2097.5 2683.22,1787.02 2700.92,1742.15 2718.61,1567.11 2736.3,1218.88 2754,1287.04 
  2771.69,810.783 2789.39,1014.75 2807.08,757.263 2824.77,487.262 2842.47,666.903 2860.16,448.862 2877.86,648.275 2895.55,803.065 2913.24,936.624 2930.94,1241.02 
  2948.63,1306.57 2966.32,1570.82 2984.02,1681.34 3001.71,1894.55 3019.41,1906.03 3037.1,1761.13 3054.79,1701 3072.49,1588.32 3090.18,1300.85 3107.87,1291.7 
  3125.57,885.008 3143.26,726.072 3160.96,602.549 3178.65,457.882 3196.34,503.517 3214.04,552.358 3231.73,606.938 3249.43,820.163 3267.12,865.51 3284.81,1107.51 
  3302.51,1310.26 3320.2,1475.09 3337.89,1628.63 3355.59,1791.56 3373.28,1961.94 3390.98,1699.9 3408.67,1616.51 3426.36,1523.43 3444.06,1042.68 3461.75,1277.79 
  3479.45,775.682 3497.14,737.434 3514.83,616.58 3532.53,462.454 3550.22,498.216 3567.91,194.471 3585.61,463.528 3603.3,618.148 3621,759.252 3638.69,1220.25 
  3656.38,1256.76 3674.08,1465.97 3691.77,1789.93 3709.46,1816.61 3727.16,1922.49 3744.85,1570.57 3762.55,1688.15 3780.24,1614.24 3797.93,1256.17 3815.63,1081.19 
  
  "/>
<polyline clip-path="url(#clip0002)" style="stroke:#e26f46; stroke-width:4; stroke-opacity:1; fill:none" points="
  294.558,1393.34 312.252,1332.15 329.945,1132.4 347.639,982.93 365.333,1116.92 383.027,986.72 400.721,1225.17 418.415,1341.73 436.108,1469.24 453.802,1816.25 
  471.496,1865.87 489.19,2168.58 506.884,2281.55 524.577,2303.29 542.271,2467.67 559.965,2268.28 577.659,2269.35 595.353,2094.02 613.047,1809.81 630.74,1742.55 
  648.434,1372 666.128,1271.61 683.822,1119.9 701.516,923.615 719.209,1029.27 736.903,919.796 754.597,1084.04 772.291,1248.76 789.985,1332.2 807.679,1691.27 
  825.372,1763.42 843.066,2024.66 860.76,2200.07 878.454,2191.8 896.148,2375.28 913.841,2214.01 931.535,2187.25 949.229,2057.58 966.923,1777.46 984.617,1696.18 
  1002.31,1358.68 1020,1233.86 1037.7,1082.13 1055.39,894.282 1073.09,980.516 1090.78,876.292 1108.47,1048.18 1126.17,1192.85 1143.86,1300.54 1161.55,1639.1 
  1179.25,1715.03 1196.94,1994.84 1214.64,2139.52 1232.33,2156.19 1250.02,2336.07 1267.72,2153.07 1285.41,2163.35 1303.11,2002.6 1320.8,1718.75 1338.49,1667.86 
  1356.19,1283.09 1373.88,1196.34 1391.57,1034.03 1409.27,823.217 1426.96,962.895 1444.66,800.801 1462.35,1003.12 1480.04,1134.39 1497.74,1196.03 1515.43,1581.21 
  1533.13,1595.65 1550.82,1889.25 1568.51,2038.24 1586.21,2021.93 1603.9,2231.67 1621.59,2021.58 1639.29,2030.66 1656.98,1879.55 1674.68,1581.99 1692.37,1543.54 
  1710.06,1155.59 1727.76,1072.05 1745.45,907.71 1763.14,704.196 1780.84,827.537 1798.53,685.673 1816.23,887.662 1833.92,1030.53 1851.61,1126.27 1869.31,1505.51 
  1887,1544.19 1904.7,1857.99 1922.39,1995.24 1940.08,2001.9 1957.78,2199.74 1975.47,1986.21 1993.16,2003.49 2010.86,1821.46 2028.55,1536.28 2046.25,1471.32 
  2063.94,1070.36 2081.63,1002.6 2099.33,810.97 2117.02,636.668 2134.71,764.656 2152.41,617.9 2170.1,864.455 2187.8,978.528 2205.49,1112.59 2223.18,1483.89 
  2240.88,1519.59 2258.57,1845.71 2276.27,1947.11 2293.96,1961.68 2311.65,2137.66 2329.35,1913.11 2347.04,1934.3 2364.73,1740.66 2382.43,1456.91 2400.12,1402.29 
  2417.82,1017.47 2435.51,934.013 2453.2,784.863 2470.9,586.3 2488.59,724.871 2506.29,597.246 2523.98,783.315 2541.67,946.929 2559.37,997.892 2577.06,1382.22 
  2594.75,1400 2612.45,1668.23 2630.14,1826.49 2647.84,1772.06 2665.53,1995.47 2683.22,1759.01 2700.92,1769.53 2718.61,1625.2 2736.3,1313.36 2754,1306.97 
  2771.69,905.281 2789.39,857.244 2807.08,694.553 2824.77,494.884 2842.47,641.262 2860.16,476.792 2877.86,697.085 2895.55,813.953 2913.24,917.273 2930.94,1267.35 
  2948.63,1313 2966.32,1605.05 2984.02,1728.01 3001.71,1761.64 3019.41,1905.3 3037.1,1757.09 3054.79,1734.91 3072.49,1582.9 3090.18,1331.02 3107.87,1217.02 
  3125.57,912.312 3143.26,761.967 3160.96,630.162 3178.65,455.526 3196.34,525.459 3214.04,472.381 3231.73,600.296 3249.43,779.345 3267.12,864.56 3284.81,1192.17 
  3302.51,1286.28 3320.2,1521.93 3337.89,1701.95 3355.59,1681.85 3373.28,1876.08 3390.98,1693.31 3408.67,1668.97 3426.36,1545.98 3444.06,1217.55 3461.75,1198.78 
  3479.45,801.24 3497.14,704.581 3514.83,564.753 3532.53,322.173 3550.22,486.706 3567.91,309.911 3585.61,525.29 3603.3,689.451 3621,748.75 3638.69,1192.31 
  3656.38,1201.49 3674.08,1531.39 3691.77,1707.85 3709.46,1666.34 3727.16,1922.19 3744.85,1669.33 3762.55,1703.82 3780.24,1549.07 3797.93,1228.31 3815.63,1163.26 
  
  "/>
<polyline clip-path="url(#clip0002)" style="stroke:#3da44d; stroke-width:4; stroke-opacity:1; fill:none" stroke-dasharray="16, 10" points="
  294.558,1744.88 312.252,1472.24 329.945,1131.51 347.639,1005.34 365.333,1099.76 383.027,978.044 400.721,1219.83 418.415,1340.04 436.108,1465.44 453.802,1821.12 
  471.496,1865.77 489.19,2173.16 506.884,2286.94 524.577,2310.26 542.271,2477.38 559.965,2275.78 577.659,2282.72 595.353,2100.23 613.047,1819.91 630.74,1750.29 
  648.434,1374.98 666.128,1283.38 683.822,1128.82 701.516,934.959 719.209,1049.83 736.903,932.811 754.597,1104.73 772.291,1263.85 789.985,1347.99 807.679,1704.82 
  825.372,1775.53 843.066,2036.86 860.76,2208.67 878.454,2198.59 896.148,2381.83 913.841,2216.89 931.535,2186.87 949.229,2060.22 966.923,1771.38 984.617,1694.44 
  1002.31,1356.85 1020,1226.56 1037.7,1077.93 1055.39,886.924 1073.09,970.4 1090.78,868.695 1108.47,1033.91 1126.17,1178.67 1143.86,1285.41 1161.55,1621.53 
  1179.25,1698.39 1196.94,1973.93 1214.64,2117.82 1232.33,2138.28 1250.02,2309.51 1267.72,2131.75 1285.41,2138.37 1303.11,1976.21 1320.8,1700.68 1338.49,1642.89 
  1356.19,1262.64 1373.88,1178.99 1391.57,1013 1409.27,810.645 1426.96,944.171 1444.66,790.037 1462.35,995.076 1480.04,1128.79 1497.74,1195.75 1515.43,1580.43 
  1533.13,1595.25 1550.82,1893.71 1568.51,2043.68 1586.21,2025.13 1603.9,2241.84 1621.59,2032.57 1639.29,2043.74 1656.98,1895.33 1674.68,1596.14 1692.37,1558.67 
  1710.06,1172.93 1727.76,1086.76 1745.45,926.893 1763.14,719.658 1780.84,845.199 1798.53,700.182 1816.23,899.528 1833.92,1040.55 1851.61,1134.31 1869.31,1510.68 
  1887,1552.87 1904.7,1860.07 1922.39,1998.64 1940.08,2004 1957.78,2200.61 1975.47,1987.42 1993.16,2002.03 2010.86,1821.93 2028.55,1533.17 2046.25,1468.51 
  2063.94,1070.2 2081.63,994.467 2099.33,804.928 2117.02,628.409 2134.71,752.671 2152.41,609.553 2170.1,849.335 2187.8,966.922 2205.49,1095.53 2223.18,1468.42 
  2240.88,1501.77 2258.57,1829.77 2276.27,1930.77 2293.96,1946.1 2311.65,2120.7 2329.35,1892.16 2347.04,1916.85 2364.73,1720.35 2382.43,1440.58 2400.12,1388.1 
  2417.82,996.948 2435.51,928.356 2453.2,771.602 2470.9,579.437 2488.59,723.499 2506.29,592.51 2523.98,791.285 2541.67,949.709 2559.37,1013.08 2577.06,1393.19 
  2594.75,1415.29 2612.45,1686.34 2630.14,1841.63 2647.84,1794.13 2665.53,2011.28 2683.22,1785.1 2700.92,1790.08 2718.61,1651.43 2736.3,1337.66 2754,1329.4 
  2771.69,935.519 2789.39,876.696 2807.08,726.409 2824.77,521.773 2842.47,671.699 2860.16,505.956 2877.86,719.993 2895.55,843.815 2913.24,930.433 2930.94,1293.73 
  2948.63,1327.88 2966.32,1619.95 2984.02,1747.69 3001.71,1765.61 3019.41,1926.64 3037.1,1760.97 3054.79,1747.02 3072.49,1592.21 3090.18,1335.48 3107.87,1232.75 
  3125.57,916.077 3143.26,776.731 3160.96,635.659 3178.65,461.208 3196.34,531.28 3214.04,473.354 3231.73,608.619 3249.43,781.35 3267.12,876.504 3284.81,1193.87 
  3302.51,1293.24 3320.2,1525.99 3337.89,1699.59 3355.59,1692.19 3373.28,1869.21 3390.98,1699.17 3408.67,1673.49 3426.36,1544.31 3444.06,1228.07 3461.75,1191.39 
  3479.45,805.97 3497.14,703.135 3514.83,569.558 3532.53,337.6 3550.22,499.399 3567.91,336.59 3585.61,545.69 3603.3,708.422 3621,768.065 3638.69,1199.61 
  3656.38,1207.79 3674.08,1529.37 3691.77,1692.63 3709.46,1642.92 3727.16,1888.32 3744.85,1625.43 3762.55,1635.38 3780.24,1473.57 3797.93,1127.32 3815.63,1095.79 
  
  "/>
<polygon clip-path="url(#clip0000)" points="
3195.41,547.424 3801.26,547.424 3801.26,305.504 3195.41,305.504 
  " fill="#ffffff" fill-rule="evenodd" fill-opacity="1"/>
<polyline clip-path="url(#clip0000)" style="stroke:#000000; stroke-width:4; stroke-opacity:1; fill:none" points="
  3195.41,547.424 3801.26,547.424 3801.26,305.504 3195.41,305.504 3195.41,547.424 
  "/>
<polyline clip-path="url(#clip0000)" style="stroke:#009af9; stroke-width:4; stroke-opacity:1; fill:none" points="
  3235.41,365.984 3475.41,365.984 
  "/>
<g clip-path="url(#clip0000)">
<text style="fill:#000000; fill-opacity:1; font-family:Times New Roman,TimesNewRoman,Times,Baskerville,Georgia,serif; font-size:53px; text-anchor:start;" transform="rotate(0, 3515.41, 383.484)" x="3515.41" y="383.484">Measured</text>
</g>
<polyline clip-path="url(#clip0000)" style="stroke:#e26f46; stroke-width:4; stroke-opacity:1; fill:none" points="
  3235.41,426.464 3475.41,426.464 
  "/>
<g clip-path="url(#clip0000)">
<text style="fill:#000000; fill-opacity:1; font-family:Times New Roman,TimesNewRoman,Times,Baskerville,Georgia,serif; font-size:53px; text-anchor:start;" transform="rotate(0, 3515.41, 443.964)" x="3515.41" y="443.964">SSA</text>
</g>
<polyline clip-path="url(#clip0000)" style="stroke:#3da44d; stroke-width:4; stroke-opacity:1; fill:none" stroke-dasharray="16, 10" points="
  3235.41,486.944 3475.41,486.944 
  "/>
<g clip-path="url(#clip0000)">
<text style="fill:#000000; fill-opacity:1; font-family:Times New Roman,TimesNewRoman,Times,Baskerville,Georgia,serif; font-size:53px; text-anchor:start;" transform="rotate(0, 3515.41, 504.444)" x="3515.41" y="504.444">AR</text>
</g>
</svg>
