<?xml version="1.0" encoding="utf-8"?>
<svg xmlns="http://www.w3.org/2000/svg" xmlns:xlink="http://www.w3.org/1999/xlink" width="1000" height="667" viewBox="0 0 4000 2668">
<defs>
  <clipPath id="clip9400">
    <rect x="0" y="0" width="4000" height="2668"/>
  </clipPath>
</defs>
<polygon clip-path="url(#clip9400)" points="
0,2668 4000,2668 4000,0 0,0 
  " fill="#ffffff" fill-rule="evenodd" fill-opacity="1"/>
<defs>
  <clipPath id="clip9401">
    <rect x="800" y="0" width="2801" height="2668"/>
  </clipPath>
</defs>
<polygon clip-path="url(#clip9400)" points="
255.494,2545.87 1899.07,2545.87 1899.07,125.984 255.494,125.984 
  " fill="#ffffff" fill-rule="evenodd" fill-opacity="1"/>
<defs>
  <clipPath id="clip9402">
    <rect x="255" y="125" width="1645" height="2421"/>
  </clipPath>
</defs>
<polyline clip-path="url(#clip9400)" style="stroke:#000000; stroke-width:4; stroke-opacity:1; fill:none" points="
  255.494,2545.87 1899.07,2545.87 
  "/>
<polyline clip-path="url(#clip9400)" style="stroke:#000000; stroke-width:4; stroke-opacity:1; fill:none" points="
  255.494,2545.87 255.494,125.984 
  "/>
<polyline clip-path="url(#clip9400)" style="stroke:#000000; stroke-width:4; stroke-opacity:1; fill:none" points="
  294.218,2545.87 294.218,2509.57 
  "/>
<polyline clip-path="url(#clip9400)" style="stroke:#000000; stroke-width:4; stroke-opacity:1; fill:none" points="
  683.802,2545.87 683.802,2509.57 
  "/>
<polyline clip-path="url(#clip9400)" style="stroke:#000000; stroke-width:4; stroke-opacity:1; fill:none" points="
  1073.39,2545.87 1073.39,2509.57 
  "/>
<polyline clip-path="url(#clip9400)" style="stroke:#000000; stroke-width:4; stroke-opacity:1; fill:none" points="
  1462.97,2545.87 1462.97,2509.57 
  "/>
<polyline clip-path="url(#clip9400)" style="stroke:#000000; stroke-width:4; stroke-opacity:1; fill:none" points="
  1852.55,2545.87 1852.55,2509.57 
  "/>
<polyline clip-path="url(#clip9400)" style="stroke:#000000; stroke-width:4; stroke-opacity:1; fill:none" points="
  255.494,2454.87 280.147,2454.87 
  "/>
<polyline clip-path="url(#clip9400)" style="stroke:#000000; stroke-width:4; stroke-opacity:1; fill:none" points="
  255.494,1891.89 280.147,1891.89 
  "/>
<polyline clip-path="url(#clip9400)" style="stroke:#000000; stroke-width:4; stroke-opacity:1; fill:none" points="
  255.494,1328.91 280.147,1328.91 
  "/>
<polyline clip-path="url(#clip9400)" style="stroke:#000000; stroke-width:4; stroke-opacity:1; fill:none" points="
  255.494,765.927 280.147,765.927 
  "/>
<polyline clip-path="url(#clip9400)" style="stroke:#000000; stroke-width:4; stroke-opacity:1; fill:none" points="
  255.494,202.945 280.147,202.945 
  "/>
<g clip-path="url(#clip9400)">
<text style="fill:#000000; fill-opacity:1; font-family:Times New Roman,TimesNewRoman,Times,Baskerville,Georgia,serif; font-size:118px; text-anchor:middle;" transform="rotate(0, 294.218, 2659.47)" x="294.218" y="2659.47">0</text>
</g>
<g clip-path="url(#clip9400)">
<text style="fill:#000000; fill-opacity:1; font-family:Times New Roman,TimesNewRoman,Times,Baskerville,Georgia,serif; font-size:118px; text-anchor:middle;" transform="rotate(0, 683.802, 2659.47)" x="683.802" y="2659.47">50</text>
</g>
<g clip-path="url(#clip9400)">
<text style="fill:#000000; fill-opacity:1; font-family:Times New Roman,TimesNewRoman,Times,Baskerville,Georgia,serif; font-size:118px; text-anchor:middle;" transform="rotate(0, 1073.39, 2659.47)" x="1073.39" y="2659.47">100</text>
</g>
<g clip-path="url(#clip9400)">
<text style="fill:#000000; fill-opacity:1; font-family:Times New Roman,TimesNewRoman,Times,Baskerville,Georgia,serif; font-size:118px; text-anchor:middle;" transform="rotate(0, 1462.97, 2659.47)" x="1462.97" y="2659.47">150</text>
</g>
<g clip-path="url(#clip9400)">
<text style="fill:#000000; fill-opacity:1; font-family:Times New Roman,TimesNewRoman,Times,Baskerville,Georgia,serif; font-size:118px; text-anchor:middle;" transform="rotate(0, 1852.55, 2659.47)" x="1852.55" y="2659.47">200</text>
</g>
<g clip-path="url(#clip9400)">
<text style="fill:#000000; fill-opacity:1; font-family:Times New Roman,TimesNewRoman,Times,Baskerville,Georgia,serif; font-size:118px; text-anchor:end;" transform="rotate(0, 215.494, 2493.87)" x="215.494" y="2493.87">-1.0</text>
</g>
<g clip-path="url(#clip9400)">
<text style="fill:#000000; fill-opacity:1; font-family:Times New Roman,TimesNewRoman,Times,Baskerville,Georgia,serif; font-size:118px; text-anchor:end;" transform="rotate(0, 215.494, 1930.89)" x="215.494" y="1930.89">-0.5</text>
</g>
<g clip-path="url(#clip9400)">
<text style="fill:#000000; fill-opacity:1; font-family:Times New Roman,TimesNewRoman,Times,Baskerville,Georgia,serif; font-size:118px; text-anchor:end;" transform="rotate(0, 215.494, 1367.91)" x="215.494" y="1367.91">0.0</text>
</g>
<g clip-path="url(#clip9400)">
<text style="fill:#000000; fill-opacity:1; font-family:Times New Roman,TimesNewRoman,Times,Baskerville,Georgia,serif; font-size:118px; text-anchor:end;" transform="rotate(0, 215.494, 804.927)" x="215.494" y="804.927">0.5</text>
</g>
<g clip-path="url(#clip9400)">
<text style="fill:#000000; fill-opacity:1; font-family:Times New Roman,TimesNewRoman,Times,Baskerville,Georgia,serif; font-size:118px; text-anchor:end;" transform="rotate(0, 215.494, 241.945)" x="215.494" y="241.945">1.0</text>
</g>
<g clip-path="url(#clip9400)">
<text style="fill:#000000; fill-opacity:1; font-family:Times New Roman,TimesNewRoman,Times,Baskerville,Georgia,serif; font-size:118px; text-anchor:middle;" transform="rotate(0, 1077.28, 93.6)" x="1077.28" y="93.6">Estimated seasonal components</text>
</g>
<polyline clip-path="url(#clip9402)" style="stroke:#009af9; stroke-width:4; stroke-opacity:1; fill:none" points="
  302.01,893.899 309.802,587.318 317.593,353.029 325.385,219.397 333.177,194.471 340.968,270.762 348.76,447.283 356.552,703.195 364.343,1016.58 372.135,1358.71 
  379.927,1698.79 387.718,2002.9 395.51,2240.91 403.302,2392.22 411.093,2438.75 418.885,2377.37 426.677,2214.64 434.468,1965.31 442.26,1654.25 450.052,1313.34 
  457.843,977.14 465.635,676.466 473.427,438.776 481.218,284.597 489.01,228.899 496.802,279.179 504.594,428.586 512.385,665.944 520.177,966.912 527.969,1302.26 
  535.76,1638.08 543.552,1943.3 551.344,2188.09 559.135,2347.31 566.927,2408.46 574.719,2363.84 582.51,2218.5 590.302,1988.03 598.094,1692.96 605.885,1360.17 
  613.677,1024.75 621.469,718.117 629.26,471.045 637.052,307.806 644.844,243.853 652.635,286.875 660.427,433.458 668.219,667.794 676.011,966.121 683.802,1298.89 
  691.594,1635.86 699.386,1941.43 707.177,2186.11 714.969,2347.16 722.761,2409.14 730.552,2367.07 738.344,2224.27 746.136,1992.52 753.927,1696.87 761.719,1366.75 
  769.511,1034.17 777.302,731.623 785.094,490.327 792.886,333.629 800.677,276.824 808.469,321.556 816.261,463.975 824.052,688.348 831.844,975.632 839.636,1299.41 
  847.427,1624.81 855.219,1921.83 863.011,2162.77 870.803,2321.5 878.594,2380.59 886.386,2334.56 894.178,2187.38 901.969,1955.44 909.761,1660.58 917.553,1331.69 
  925.344,999.725 933.136,697.587 940.928,453.735 948.719,293.491 956.511,232.956 964.303,280.985 972.094,432.462 979.886,674.703 987.678,981.715 995.469,1322.98 
  1003.26,1665.55 1011.05,1977.01 1018.84,2224.46 1026.64,2383.5 1034.43,2438.66 1042.22,2383.25 1050.01,2222.61 1057.8,1973.72 1065.59,1658.84 1073.39,1308.86 
  1081.18,960.956 1088.97,649.893 1096.76,406.157 1104.55,253.699 1112.34,207.793 1120.14,271.899 1127.93,441.641 1135.72,698.253 1143.51,1018.37 1151.3,1367.56 
  1159.09,1711.64 1166.89,2014.75 1174.68,2247.11 1182.47,2388.91 1190.26,2427.6 1198.05,2360.48 1205.84,2194.05 1213.64,1942.35 1221.43,1634.34 1229.22,1299.54 
  1237.01,969.413 1244.8,676.358 1252.59,450.647 1260.39,312.337 1268.18,273.727 1275.97,339.262 1283.76,497.877 1291.55,735.819 1299.34,1028.14 1307.14,1348.75 
  1314.93,1665.57 1322.72,1947.6 1330.51,2169.93 1338.3,2308.16 1346.1,2350.7 1353.89,2290.59 1361.68,2136.25 1369.47,1903.9 1377.26,1614.87 1385.05,1298.71 
  1392.85,985.018 1400.64,704.289 1408.43,478.601 1416.22,332.231 1424.01,281.327 1431.8,329.261 1439.6,476.438 1447.39,706.771 1455.18,998.814 1462.97,1322.66 
  1470.76,1647.08 1478.55,1942.2 1486.35,2176.96 1494.14,2329.86 1501.93,2383.24 1509.72,2335.6 1517.51,2188.89 1525.3,1957.04 1533.1,1662.13 1540.89,1330.83 
  1548.68,998.639 1556.47,697.224 1564.26,460.751 1572.05,311.478 1579.85,262.717 1587.64,319.892 1595.43,471.714 1603.22,706.263 1611.01,999.796 1618.8,1325.54 
  1626.6,1654.34 1634.39,1951.51 1642.18,2189.06 1649.97,2344.47 1657.76,2401.13 1665.55,2350.79 1673.35,2197.92 1681.14,1958.88 1688.93,1656.58 1696.72,1322.69 
  1704.51,983.678 1712.3,682.866 1720.1,443.976 1727.89,290.348 1735.68,237.379 1743.47,290.735 1751.26,451.199 1759.05,701.35 1766.85,1018.62 1774.64,1371.45 
  1782.43,1720.99 1790.22,2035.5 1798.01,2282.67 1805.8,2433.36 1813.6,2473.88 1821.39,2401.25 1829.18,2228.35 1836.97,1963.73 1844.76,1630.71 1852.55,1238.95 
  
  "/>
<polyline clip-path="url(#clip9402)" style="stroke:#e26f46; stroke-width:4; stroke-opacity:1; fill:none" points="
  302.01,1328.91 309.802,781.757 317.593,423.045 325.385,234.463 333.177,195.09 340.968,279.114 348.76,456.088 356.552,714.962 364.343,1027.14 372.135,1366.2 
  379.927,1701.78 387.718,2003.97 395.51,2241.62 403.302,2390.17 411.093,2438.13 418.885,2376.49 426.677,2212.74 434.468,1963.87 442.26,1652.69 450.052,1310.17 
  457.843,971.749 465.635,671.961 473.427,437.158 481.218,287.551 489.01,234.656 496.802,284.224 504.594,434.854 512.385,669.738 520.177,970.139 527.969,1305.26 
  535.76,1642.1 543.552,1946.18 551.344,2190.01 559.135,2349.85 566.927,2408.35 574.719,2363.54 582.51,2217.62 590.302,1985.34 598.094,1691.13 605.885,1361.08 
  613.677,1024.78 621.469,718.668 629.26,471.339 637.052,307.856 644.844,244.404 652.635,286.461 660.427,431.671 668.219,666.804 676.011,966.723 683.802,1300.81 
  691.594,1636.12 699.386,1943.05 707.177,2188.33 714.969,2348.32 722.761,2409.11 730.552,2365.22 738.344,2222.07 746.136,1992.44 753.927,1695.76 761.719,1364.15 
  769.511,1031.04 777.302,728.414 785.094,485.588 792.886,328.263 800.677,271.393 808.469,320.188 816.261,464.814 824.052,691.981 831.844,977.939 839.636,1298.85 
  847.427,1625.77 855.219,1922.26 863.011,2161.25 870.803,2321.25 878.594,2383.21 886.386,2338.45 894.178,2192.15 901.969,1958.55 909.761,1663.28 917.553,1334.27 
  925.344,1003.49 933.136,701.755 940.928,459.174 948.719,298.324 956.511,236.92 964.303,281.645 972.094,431.628 979.886,671.283 987.678,979.18 995.469,1321.86 
  1003.26,1664.79 1011.05,1975.16 1018.84,2224.22 1026.64,2384.54 1034.43,2440.11 1042.22,2385.98 1050.01,2226.09 1057.8,1976.16 1065.59,1662.54 1073.39,1313.38 
  1081.18,962.914 1088.97,649.413 1096.76,404.449 1104.55,251.503 1112.34,205.195 1120.14,270.253 1127.93,438.874 1135.72,696.895 1143.51,1016.39 1151.3,1368.13 
  1159.09,1713.96 1166.89,2020.02 1174.68,2254.11 1182.47,2393.63 1190.26,2429.19 1198.05,2359.14 1205.84,2191.18 1213.64,1941.02 1221.43,1629.81 1229.22,1293.33 
  1237.01,963.833 1244.8,671.337 1252.59,444.38 1260.39,307.317 1268.18,271.012 1275.97,337.317 1283.76,500.892 1291.55,740.253 1299.34,1034.58 1307.14,1353.82 
  1314.93,1670.21 1322.72,1952.09 1330.51,2171.65 1338.3,2310.65 1346.1,2352.01 1353.89,2293.72 1361.68,2138.07 1369.47,1903.45 1377.26,1614.46 1385.05,1297.32 
  1392.85,984.326 1400.64,704.406 1408.43,484.605 1416.22,339.819 1424.01,287.459 1431.8,335.968 1439.6,478.706 1447.39,707.877 1455.18,998.711 1462.97,1323.29 
  1470.76,1647.88 1478.55,1941.12 1486.35,2176.76 1494.14,2328.91 1501.93,2384.29 1509.72,2334.21 1517.51,2188.27 1525.3,1957.57 1533.1,1663.84 1540.89,1335.3 
  1548.68,1001.66 1556.47,699.823 1564.26,458.655 1572.05,307.377 1579.85,259.323 1587.64,316.669 1595.43,474.312 1603.22,709.746 1611.01,1003.96 1618.8,1328.12 
  1626.6,1653.1 1634.39,1950.49 1642.18,2187.51 1649.97,2341.74 1657.76,2399.01 1665.55,2351.81 1673.35,2201.24 1681.14,1961.78 1688.93,1659.33 1696.72,1323.26 
  1704.51,989.075 1712.3,681.531 1720.1,443.464 1727.89,291.349 1735.68,238.994 1743.47,292.182 1751.26,446.562 1759.05,694.628 1766.85,1009.49 1774.64,1361.58 
  1782.43,1715.29 1790.22,2030.08 1798.01,2278.36 1805.8,2434.59 1813.6,2477.38 1821.39,2404.4 1829.18,2225.09 1836.97,1964.66 1844.76,1637.67 1852.55,1272.15 
  
  "/>
<polygon clip-path="url(#clip9400)" points="
1283.33,486.944 1779.07,486.944 1779.07,305.504 1283.33,305.504 
  " fill="#ffffff" fill-rule="evenodd" fill-opacity="1"/>
<polyline clip-path="url(#clip9400)" style="stroke:#000000; stroke-width:4; stroke-opacity:1; fill:none" points="
  1283.33,486.944 1779.07,486.944 1779.07,305.504 1283.33,305.504 1283.33,486.944 
  "/>
<polyline clip-path="url(#clip9400)" style="stroke:#009af9; stroke-width:4; stroke-opacity:1; fill:none" points="
  1323.33,365.984 1563.33,365.984 
  "/>
<g clip-path="url(#clip9400)">
<text style="fill:#000000; fill-opacity:1; font-family:Times New Roman,TimesNewRoman,Times,Baskerville,Georgia,serif; font-size:53px; text-anchor:start;" transform="rotate(0, 1603.33, 383.484)" x="1603.33" y="383.484">SSA</text>
</g>
<polyline clip-path="url(#clip9400)" style="stroke:#e26f46; stroke-width:4; stroke-opacity:1; fill:none" points="
  1323.33,426.464 1563.33,426.464 
  "/>
<g clip-path="url(#clip9400)">
<text style="fill:#000000; fill-opacity:1; font-family:Times New Roman,TimesNewRoman,Times,Baskerville,Georgia,serif; font-size:53px; text-anchor:start;" transform="rotate(0, 1603.33, 443.964)" x="1603.33" y="443.964">AR</text>
</g>
<polygon clip-path="url(#clip9400)" points="
2277.68,2545.87 3921.26,2545.87 3921.26,125.984 2277.68,125.984 
  " fill="#ffffff" fill-rule="evenodd" fill-opacity="1"/>
<defs>
  <clipPath id="clip9403">
    <rect x="2277" y="125" width="1645" height="2421"/>
  </clipPath>
</defs>
<polyline clip-path="url(#clip9400)" style="stroke:#000000; stroke-width:4; stroke-opacity:1; fill:none" points="
  2277.68,2545.87 3921.26,2545.87 
  "/>
<polyline clip-path="url(#clip9400)" style="stroke:#000000; stroke-width:4; stroke-opacity:1; fill:none" points="
  2277.68,2545.87 2277.68,125.984 
  "/>
<polyline clip-path="url(#clip9400)" style="stroke:#000000; stroke-width:4; stroke-opacity:1; fill:none" points="
  2316.41,2545.87 2316.41,2509.57 
  "/>
<polyline clip-path="url(#clip9400)" style="stroke:#000000; stroke-width:4; stroke-opacity:1; fill:none" points="
  2705.99,2545.87 2705.99,2509.57 
  "/>
<polyline clip-path="url(#clip9400)" style="stroke:#000000; stroke-width:4; stroke-opacity:1; fill:none" points="
  3095.58,2545.87 3095.58,2509.57 
  "/>
<polyline clip-path="url(#clip9400)" style="stroke:#000000; stroke-width:4; stroke-opacity:1; fill:none" points="
  3485.16,2545.87 3485.16,2509.57 
  "/>
<polyline clip-path="url(#clip9400)" style="stroke:#000000; stroke-width:4; stroke-opacity:1; fill:none" points="
  3874.74,2545.87 3874.74,2509.57 
  "/>
<polyline clip-path="url(#clip9400)" style="stroke:#000000; stroke-width:4; stroke-opacity:1; fill:none" points="
  2277.68,2334.88 2302.34,2334.88 
  "/>
<polyline clip-path="url(#clip9400)" style="stroke:#000000; stroke-width:4; stroke-opacity:1; fill:none" points="
  2277.68,1970.76 2302.34,1970.76 
  "/>
<polyline clip-path="url(#clip9400)" style="stroke:#000000; stroke-width:4; stroke-opacity:1; fill:none" points="
  2277.68,1606.64 2302.34,1606.64 
  "/>
<polyline clip-path="url(#clip9400)" style="stroke:#000000; stroke-width:4; stroke-opacity:1; fill:none" points="
  2277.68,1242.52 2302.34,1242.52 
  "/>
<polyline clip-path="url(#clip9400)" style="stroke:#000000; stroke-width:4; stroke-opacity:1; fill:none" points="
  2277.68,878.395 2302.34,878.395 
  "/>
<polyline clip-path="url(#clip9400)" style="stroke:#000000; stroke-width:4; stroke-opacity:1; fill:none" points="
  2277.68,514.274 2302.34,514.274 
  "/>
<polyline clip-path="url(#clip9400)" style="stroke:#000000; stroke-width:4; stroke-opacity:1; fill:none" points="
  2277.68,150.152 2302.34,150.152 
  "/>
<g clip-path="url(#clip9400)">
<text style="fill:#000000; fill-opacity:1; font-family:Times New Roman,TimesNewRoman,Times,Baskerville,Georgia,serif; font-size:118px; text-anchor:middle;" transform="rotate(0, 2316.41, 2659.47)" x="2316.41" y="2659.47">0</text>
</g>
<g clip-path="url(#clip9400)">
<text style="fill:#000000; fill-opacity:1; font-family:Times New Roman,TimesNewRoman,Times,Baskerville,Georgia,serif; font-size:118px; text-anchor:middle;" transform="rotate(0, 2705.99, 2659.47)" x="2705.99" y="2659.47">50</text>
</g>
<g clip-path="url(#clip9400)">
<text style="fill:#000000; fill-opacity:1; font-family:Times New Roman,TimesNewRoman,Times,Baskerville,Georgia,serif; font-size:118px; text-anchor:middle;" transform="rotate(0, 3095.58, 2659.47)" x="3095.58" y="2659.47">100</text>
</g>
<g clip-path="url(#clip9400)">
<text style="fill:#000000; fill-opacity:1; font-family:Times New Roman,TimesNewRoman,Times,Baskerville,Georgia,serif; font-size:118px; text-anchor:middle;" transform="rotate(0, 3485.16, 2659.47)" x="3485.16" y="2659.47">150</text>
</g>
<g clip-path="url(#clip9400)">
<text style="fill:#000000; fill-opacity:1; font-family:Times New Roman,TimesNewRoman,Times,Baskerville,Georgia,serif; font-size:118px; text-anchor:middle;" transform="rotate(0, 3874.74, 2659.47)" x="3874.74" y="2659.47">200</text>
</g>
<g clip-path="url(#clip9400)">
<text style="fill:#000000; fill-opacity:1; font-family:Times New Roman,TimesNewRoman,Times,Baskerville,Georgia,serif; font-size:118px; text-anchor:end;" transform="rotate(0, 2237.68, 2373.88)" x="2237.68" y="2373.88">-0.15</text>
</g>
<g clip-path="url(#clip9400)">
<text style="fill:#000000; fill-opacity:1; font-family:Times New Roman,TimesNewRoman,Times,Baskerville,Georgia,serif; font-size:118px; text-anchor:end;" transform="rotate(0, 2237.68, 2009.76)" x="2237.68" y="2009.76">-0.10</text>
</g>
<g clip-path="url(#clip9400)">
<text style="fill:#000000; fill-opacity:1; font-family:Times New Roman,TimesNewRoman,Times,Baskerville,Georgia,serif; font-size:118px; text-anchor:end;" transform="rotate(0, 2237.68, 1645.64)" x="2237.68" y="1645.64">-0.05</text>
</g>
<g clip-path="url(#clip9400)">
<text style="fill:#000000; fill-opacity:1; font-family:Times New Roman,TimesNewRoman,Times,Baskerville,Georgia,serif; font-size:118px; text-anchor:end;" transform="rotate(0, 2237.68, 1281.52)" x="2237.68" y="1281.52">0.00</text>
</g>
<g clip-path="url(#clip9400)">
<text style="fill:#000000; fill-opacity:1; font-family:Times New Roman,TimesNewRoman,Times,Baskerville,Georgia,serif; font-size:118px; text-anchor:end;" transform="rotate(0, 2237.68, 917.395)" x="2237.68" y="917.395">0.05</text>
</g>
<g clip-path="url(#clip9400)">
<text style="fill:#000000; fill-opacity:1; font-family:Times New Roman,TimesNewRoman,Times,Baskerville,Georgia,serif; font-size:118px; text-anchor:end;" transform="rotate(0, 2237.68, 553.274)" x="2237.68" y="553.274">0.10</text>
</g>
<g clip-path="url(#clip9400)">
<text style="fill:#000000; fill-opacity:1; font-family:Times New Roman,TimesNewRoman,Times,Baskerville,Georgia,serif; font-size:118px; text-anchor:end;" transform="rotate(0, 2237.68, 189.152)" x="2237.68" y="189.152">0.15</text>
</g>
<g clip-path="url(#clip9400)">
<text style="fill:#000000; fill-opacity:1; font-family:Times New Roman,TimesNewRoman,Times,Baskerville,Georgia,serif; font-size:118px; text-anchor:middle;" transform="rotate(0, 3099.47, 93.6)" x="3099.47" y="93.6">Estimated seasonal components</text>
</g>
<polyline clip-path="url(#clip9403)" style="stroke:#009af9; stroke-width:4; stroke-opacity:1; fill:none" points="
  2324.2,419.927 2331.99,1792.09 2339.78,1280.39 2347.57,623.802 2355.37,2172.46 2363.16,380.145 2370.95,1725.39 2378.74,1323.72 2386.53,669.711 2394.32,2084.28 
  2402.12,462.353 2409.91,1665.31 2417.7,1349.57 2425.49,650.831 2433.28,2089.24 2441.07,490.763 2448.87,1594.12 2456.66,1444.61 2464.45,572.11 2472.24,2106.61 
  2480.03,535.912 2487.82,1498.7 2495.62,1525.78 2503.41,557.711 2511.2,2047.06 2518.99,641.321 2526.78,1399.03 2534.57,1584.75 2542.37,522.186 2550.16,2057.68 
  2557.95,650.561 2565.74,1376.13 2573.53,1611.72 2581.32,521.564 2589.12,2027.05 2596.91,685.649 2604.7,1374.3 2612.49,1555.76 2620.28,614.427 2628.07,1959.86 
  2635.87,695.08 2643.66,1424.87 2651.45,1493.06 2659.24,648.104 2667.03,1970.09 2674.82,646.087 2682.62,1477.15 2690.41,1461.07 2698.2,653.602 2705.99,1991.6 
  2713.78,608.559 2721.57,1522.18 2729.37,1449.2 2737.16,607.739 2744.95,2082.02 2752.74,511.6 2760.53,1575.95 2768.32,1472.05 2776.12,523.174 2783.91,2186.54 
  2791.7,447.966 2799.49,1572.07 2807.28,1524.57 2815.07,431.381 2822.87,2280.33 2830.66,385.459 2838.45,1594.82 2846.24,1552.2 2854.03,387.952 2861.83,2297.65 
  2869.62,400.915 2877.41,1546 2885.2,1565.97 2892.99,423.104 2900.78,2243.4 2908.58,442.003 2916.37,1541.51 2924.16,1543.19 2931.95,447.957 2939.74,2223.87 
  2947.53,436.889 2955.33,1573.53 2963.12,1505.97 2970.91,494.525 2978.7,2186.6 2986.49,453.127 2994.28,1571.09 3002.08,1489.32 3009.87,505.295 3017.66,2205.74 
  3025.45,408.193 3033.24,1627.47 3041.03,1453.81 3048.83,515.546 3056.62,2208.13 3064.41,403.398 3072.2,1646.53 3079.99,1416.84 3087.78,560.844 3095.58,2192.85 
  3103.37,366.508 3111.16,1713.54 3118.95,1354.28 3126.74,580.857 3134.53,2213.74 3142.33,320.689 3150.12,1770.14 3157.91,1300.95 3165.7,621.103 3173.49,2186.34 
  3181.28,347.28 3189.08,1755.77 3196.87,1327.4 3204.66,597.779 3212.45,2190.62 3220.24,364.796 3228.03,1702.07 3235.83,1399.31 3243.62,537.096 3251.41,2197.28 
  3259.2,448.401 3266.99,1550.48 3274.78,1541.19 3282.58,460.527 3290.37,2190.11 3298.16,514.565 3305.95,1456.76 3313.74,1655.03 3321.53,350.148 3329.33,2274.68 
  3337.12,466.949 3344.91,1450.51 3352.7,1687.36 3360.49,290.265 3368.28,2355.92 3376.08,377.779 3383.87,1537.96 3391.66,1611.57 3399.45,333.934 3407.24,2355.71 
  3415.03,306.837 3422.83,1662.57 3430.62,1493.7 3438.41,432.941 3446.2,2296.57 3453.99,337.707 3461.78,1670.36 3469.58,1402.62 3477.37,592.936 3485.16,2106.68 
  3492.95,498.07 3500.74,1600.59 3508.53,1363.72 3516.33,740.335 3524.12,1894.02 3531.91,706.499 3539.7,1453.29 3547.49,1422.38 3555.28,778.712 3563.08,1790.98 
  3570.87,855.311 3578.66,1306.01 3586.45,1519.43 3594.24,725.374 3602.03,1785.38 3609.83,895.056 3617.62,1256.04 3625.41,1607.07 3633.2,619.212 3640.99,1907.22 
  3648.78,777.655 3656.58,1304.95 3664.37,1646.9 3672.16,466.234 3679.95,2118.92 3687.74,604.102 3695.53,1378.42 3703.33,1696.52 3711.12,315.577 3718.91,2301.27 
  3726.7,442.128 3734.49,1479.08 3742.28,1679.53 3750.08,278.775 3757.87,2396.98 3765.66,325.184 3773.45,1555.15 3781.24,1659.67 3789.04,228.65 3796.83,2476.77 
  3804.62,278.532 3812.41,1567.56 3820.2,1697.28 3827.99,211.605 3835.79,2477.38 3843.58,257.833 3851.37,1609.68 3859.16,1620.57 3866.95,392.815 3874.74,2239.29 
  
  "/>
<polyline clip-path="url(#clip9403)" style="stroke:#e26f46; stroke-width:4; stroke-opacity:1; fill:none" points="
  2324.2,1242.52 2331.99,2024.75 2339.78,890.521 2347.57,854.355 2355.37,2113.61 2363.16,359.981 2370.95,1729.86 2378.74,1324.3 2386.53,627.234 2394.32,2115.77 
  2402.12,439.941 2409.91,1672.22 2417.7,1337.98 2425.49,653.235 2433.28,2092.49 2441.07,462.466 2448.87,1629.74 2456.66,1406.49 2464.45,583.836 2472.24,2122.76 
  2480.03,503.022 2487.82,1540.36 2495.62,1512.35 2503.41,530.597 2511.2,2086.81 2518.99,604.182 2526.78,1428.54 2534.57,1576.88 2542.37,533.138 2550.16,2059.04 
  2557.95,642.043 2565.74,1390.02 2573.53,1610.52 2581.32,510.469 2589.12,2046.7 2596.91,683.523 2604.7,1356.75 2612.49,1598.32 2620.28,578.649 2628.07,1961.98 
  2635.87,714.914 2643.66,1396.85 2651.45,1510.6 2659.24,647.799 2667.03,1950.57 2674.82,673.464 2682.62,1464.26 2690.41,1463.76 2698.2,654.727 2705.99,1975.09 
  2713.78,630.949 2721.57,1506.28 2729.37,1431.28 2737.16,643.099 2744.95,2041.59 2752.74,541.086 2760.53,1571.73 2768.32,1432.38 2776.12,565.015 2783.91,2154.64 
  2791.7,449.923 2799.49,1587.08 2807.28,1493.86 2815.07,474.938 2822.87,2247.98 2830.66,390.079 2838.45,1592.67 2846.24,1530.59 2854.03,404.178 2861.83,2307.33 
  2869.62,381.851 2877.41,1559.44 2885.2,1587.46 2892.99,399.54 2900.78,2256.37 2908.58,438.577 2916.37,1536.31 2924.16,1563.56 2931.95,444.576 2939.74,2225.69 
  2947.53,449.52 2955.33,1555.19 2963.12,1523.09 2970.91,476.994 2978.7,2197.55 2986.49,459.381 2994.28,1568.99 3002.08,1501 3009.87,507.404 3017.66,2184.57 
  3025.45,435.937 3033.24,1613.32 3041.03,1459.37 3048.83,514.435 3056.62,2206.62 3064.41,409.231 3072.2,1630.14 3079.99,1438.32 3087.78,544.91 3095.58,2177.68 
  3103.37,400.1 3111.16,1688.76 3118.95,1368.03 3126.74,585.553 3134.53,2195.37 3142.33,345.153 3150.12,1748.55 3157.91,1321.64 3165.7,610.048 3173.49,2193.01 
  3181.28,335.045 3189.08,1753.41 3196.87,1311.32 3204.66,603.079 3212.45,2199.23 3220.24,347.549 3228.03,1723.83 3235.83,1365.37 3243.62,548.56 3251.41,2224.18 
  3259.2,384.295 3266.99,1610.28 3274.78,1509.02 3282.58,463.498 3290.37,2211.5 3298.16,477.489 3305.95,1493.34 3313.74,1605.56 3321.53,388.342 3329.33,2255.43 
  3337.12,472.572 3344.91,1463.79 3352.7,1672.01 3360.49,323.296 3368.28,2317.94 3376.08,414.386 3383.87,1509.08 3391.66,1642.92 3399.45,334.005 3407.24,2337.64 
  3415.03,363.046 3422.83,1607.79 3430.62,1526.5 3438.41,403.155 3446.2,2315.07 3453.99,340.063 3461.78,1647.06 3469.58,1470.63 3477.37,514.174 3485.16,2174.45 
  3492.95,462.104 3500.74,1595.32 3508.53,1417.18 3516.33,653.675 3524.12,1982.58 3531.91,645.994 3539.7,1483.98 3547.49,1426.89 3555.28,733.001 3563.08,1842.37 
  3570.87,792.477 3578.66,1353.85 3586.45,1505.19 3594.24,733.117 3602.03,1798.95 3609.83,871.55 3617.62,1275 3625.41,1559.23 3633.2,668.344 3640.99,1860.76 
  3648.78,814.096 3656.58,1312.63 3664.37,1595.51 3672.16,559.189 3679.95,2039.68 3687.74,639.603 3695.53,1387.41 3703.33,1649.54 3711.12,402.339 3718.91,2237.1 
  3726.7,486.34 3734.49,1458.78 3742.28,1666.86 3750.08,310.945 3757.87,2344.5 3765.66,369.286 3773.45,1550.39 3781.24,1650.46 3789.04,262.218 3796.83,2443.94 
  3804.62,277.071 3812.41,1573.26 3820.2,1677.34 3827.99,194.471 3835.79,2469.36 3843.58,284.671 3851.37,1583.32 3859.16,1646.77 3866.95,250.762 3874.74,2328.92 
  
  "/>
<polygon clip-path="url(#clip9400)" points="
3305.52,486.944 3801.26,486.944 3801.26,305.504 3305.52,305.504 
  " fill="#ffffff" fill-rule="evenodd" fill-opacity="1"/>
<polyline clip-path="url(#clip9400)" style="stroke:#000000; stroke-width:4; stroke-opacity:1; fill:none" points="
  3305.52,486.944 3801.26,486.944 3801.26,305.504 3305.52,305.504 3305.52,486.944 
  "/>
<polyline clip-path="url(#clip9400)" style="stroke:#009af9; stroke-width:4; stroke-opacity:1; fill:none" points="
  3345.52,365.984 3585.52,365.984 
  "/>
<g clip-path="url(#clip9400)">
<text style="fill:#000000; fill-opacity:1; font-family:Times New Roman,TimesNewRoman,Times,Baskerville,Georgia,serif; font-size:53px; text-anchor:start;" transform="rotate(0, 3625.52, 383.484)" x="3625.52" y="383.484">SSA</text>
</g>
<polyline clip-path="url(#clip9400)" style="stroke:#e26f46; stroke-width:4; stroke-opacity:1; fill:none" points="
  3345.52,426.464 3585.52,426.464 
  "/>
<g clip-path="url(#clip9400)">
<text style="fill:#000000; fill-opacity:1; font-family:Times New Roman,TimesNewRoman,Times,Baskerville,Georgia,serif; font-size:53px; text-anchor:start;" transform="rotate(0, 3625.52, 443.964)" x="3625.52" y="443.964">AR</text>
</g>
</svg>
