<?xml version="1.0" encoding="utf-8"?>
<svg xmlns="http://www.w3.org/2000/svg" xmlns:xlink="http://www.w3.org/1999/xlink" width="1000" height="667" viewBox="0 0 4000 2668">
<defs>
  <clipPath id="clip9700">
    <rect x="0" y="0" width="4000" height="2668"/>
  </clipPath>
</defs>
<polygon clip-path="url(#clip9700)" points="
0,2668 4000,2668 4000,0 0,0 
  " fill="#ffffff" fill-rule="evenodd" fill-opacity="1"/>
<defs>
  <clipPath id="clip9701">
    <rect x="800" y="0" width="2801" height="2668"/>
  </clipPath>
</defs>
<polygon clip-path="url(#clip9700)" points="
205.435,2545.87 3921.26,2545.87 3921.26,125.984 205.435,125.984 
  " fill="#ffffff" fill-rule="evenodd" fill-opacity="1"/>
<defs>
  <clipPath id="clip9702">
    <rect x="205" y="125" width="3717" height="2421"/>
  </clipPath>
</defs>
<polyline clip-path="url(#clip9700)" style="stroke:#000000; stroke-width:4; stroke-opacity:1; fill:none" points="
  205.435,2545.87 3921.26,2545.87 
  "/>
<polyline clip-path="url(#clip9700)" style="stroke:#000000; stroke-width:4; stroke-opacity:1; fill:none" points="
  205.435,2545.87 205.435,125.984 
  "/>
<polyline clip-path="url(#clip9700)" style="stroke:#000000; stroke-width:4; stroke-opacity:1; fill:none" points="
  292.984,2545.87 292.984,2509.57 
  "/>
<polyline clip-path="url(#clip9700)" style="stroke:#000000; stroke-width:4; stroke-opacity:1; fill:none" points="
  1173.76,2545.87 1173.76,2509.57 
  "/>
<polyline clip-path="url(#clip9700)" style="stroke:#000000; stroke-width:4; stroke-opacity:1; fill:none" points="
  2054.54,2545.87 2054.54,2509.57 
  "/>
<polyline clip-path="url(#clip9700)" style="stroke:#000000; stroke-width:4; stroke-opacity:1; fill:none" points="
  2935.32,2545.87 2935.32,2509.57 
  "/>
<polyline clip-path="url(#clip9700)" style="stroke:#000000; stroke-width:4; stroke-opacity:1; fill:none" points="
  3816.09,2545.87 3816.09,2509.57 
  "/>
<polyline clip-path="url(#clip9700)" style="stroke:#000000; stroke-width:4; stroke-opacity:1; fill:none" points="
  205.435,2271.03 261.172,2271.03 
  "/>
<polyline clip-path="url(#clip9700)" style="stroke:#000000; stroke-width:4; stroke-opacity:1; fill:none" points="
  205.435,1821.96 261.172,1821.96 
  "/>
<polyline clip-path="url(#clip9700)" style="stroke:#000000; stroke-width:4; stroke-opacity:1; fill:none" points="
  205.435,1372.89 261.172,1372.89 
  "/>
<polyline clip-path="url(#clip9700)" style="stroke:#000000; stroke-width:4; stroke-opacity:1; fill:none" points="
  205.435,923.821 261.172,923.821 
  "/>
<polyline clip-path="url(#clip9700)" style="stroke:#000000; stroke-width:4; stroke-opacity:1; fill:none" points="
  205.435,474.751 261.172,474.751 
  "/>
<g clip-path="url(#clip9700)">
<text style="fill:#000000; fill-opacity:1; font-family:Times New Roman,TimesNewRoman,Times,Baskerville,Georgia,serif; font-size:118px; text-anchor:middle;" transform="rotate(0, 292.984, 2659.47)" x="292.984" y="2659.47">0</text>
</g>
<g clip-path="url(#clip9700)">
<text style="fill:#000000; fill-opacity:1; font-family:Times New Roman,TimesNewRoman,Times,Baskerville,Georgia,serif; font-size:118px; text-anchor:middle;" transform="rotate(0, 1173.76, 2659.47)" x="1173.76" y="2659.47">50</text>
</g>
<g clip-path="url(#clip9700)">
<text style="fill:#000000; fill-opacity:1; font-family:Times New Roman,TimesNewRoman,Times,Baskerville,Georgia,serif; font-size:118px; text-anchor:middle;" transform="rotate(0, 2054.54, 2659.47)" x="2054.54" y="2659.47">100</text>
</g>
<g clip-path="url(#clip9700)">
<text style="fill:#000000; fill-opacity:1; font-family:Times New Roman,TimesNewRoman,Times,Baskerville,Georgia,serif; font-size:118px; text-anchor:middle;" transform="rotate(0, 2935.32, 2659.47)" x="2935.32" y="2659.47">150</text>
</g>
<g clip-path="url(#clip9700)">
<text style="fill:#000000; fill-opacity:1; font-family:Times New Roman,TimesNewRoman,Times,Baskerville,Georgia,serif; font-size:118px; text-anchor:middle;" transform="rotate(0, 3816.09, 2659.47)" x="3816.09" y="2659.47">200</text>
</g>
<g clip-path="url(#clip9700)">
<text style="fill:#000000; fill-opacity:1; font-family:Times New Roman,TimesNewRoman,Times,Baskerville,Georgia,serif; font-size:118px; text-anchor:end;" transform="rotate(0, 165.435, 2310.03)" x="165.435" y="2310.03">0.2</text>
</g>
<g clip-path="url(#clip9700)">
<text style="fill:#000000; fill-opacity:1; font-family:Times New Roman,TimesNewRoman,Times,Baskerville,Georgia,serif; font-size:118px; text-anchor:end;" transform="rotate(0, 165.435, 1860.96)" x="165.435" y="1860.96">0.4</text>
</g>
<g clip-path="url(#clip9700)">
<text style="fill:#000000; fill-opacity:1; font-family:Times New Roman,TimesNewRoman,Times,Baskerville,Georgia,serif; font-size:118px; text-anchor:end;" transform="rotate(0, 165.435, 1411.89)" x="165.435" y="1411.89">0.6</text>
</g>
<g clip-path="url(#clip9700)">
<text style="fill:#000000; fill-opacity:1; font-family:Times New Roman,TimesNewRoman,Times,Baskerville,Georgia,serif; font-size:118px; text-anchor:end;" transform="rotate(0, 165.435, 962.821)" x="165.435" y="962.821">0.8</text>
</g>
<g clip-path="url(#clip9700)">
<text style="fill:#000000; fill-opacity:1; font-family:Times New Roman,TimesNewRoman,Times,Baskerville,Georgia,serif; font-size:118px; text-anchor:end;" transform="rotate(0, 165.435, 513.751)" x="165.435" y="513.751">1.0</text>
</g>
<g clip-path="url(#clip9700)">
<text style="fill:#000000; fill-opacity:1; font-family:Times New Roman,TimesNewRoman,Times,Baskerville,Georgia,serif; font-size:118px; text-anchor:middle;" transform="rotate(0, 2063.35, 93.6)" x="2063.35" y="93.6">Estimated trend</text>
</g>
<polyline clip-path="url(#clip9702)" style="stroke:#009af9; stroke-width:4; stroke-opacity:1; fill:none" points="
  310.599,2477.38 328.215,2472.38 345.831,2466.27 363.446,2462.98 381.062,2458.5 398.677,2447.65 416.293,2434.2 433.908,2415.96 451.524,2395.5 469.139,2373.4 
  486.755,2352.07 504.371,2331.07 521.986,2310.69 539.602,2293.09 557.217,2276.13 574.833,2261.44 592.448,2249.12 610.064,2238.53 627.679,2229.95 645.295,2224.14 
  662.911,2208.22 680.526,2193.78 698.142,2180.15 715.757,2165.95 733.373,2151.61 750.988,2138.91 768.604,2126.23 786.219,2116.03 803.835,2107.11 821.451,2099.33 
  839.066,2091.43 856.682,2084.4 874.297,2077.8 891.913,2070.25 909.528,2063.82 927.144,2056.87 944.759,2049.83 962.375,2043.83 979.991,2037.5 997.606,2029.54 
  1015.22,2022.11 1032.84,2014.22 1050.45,2006.54 1068.07,1999.13 1085.68,1991.5 1103.3,1984.65 1120.91,1979.16 1138.53,1973.87 1156.15,1968.14 1173.76,1961.61 
  1191.38,1955.94 1208.99,1948.89 1226.61,1940.54 1244.22,1931.48 1261.84,1921.63 1279.45,1911.58 1297.07,1900.65 1314.69,1886.98 1332.3,1872.36 1349.92,1857.02 
  1367.53,1840.69 1385.15,1823.36 1402.76,1806.42 1420.38,1789.94 1437.99,1774.42 1455.61,1757.35 1473.23,1739.67 1490.84,1720.09 1508.46,1700.88 1526.07,1683.32 
  1543.69,1664.86 1561.3,1647.04 1578.92,1631.1 1596.53,1615.42 1614.15,1599 1631.77,1582.45 1649.38,1565.61 1667,1550.23 1684.61,1535.84 1702.23,1522.68 
  1719.84,1509.98 1737.46,1498.12 1755.07,1486.04 1772.69,1474.49 1790.31,1463.16 1807.92,1453.67 1825.54,1445.05 1843.15,1438.55 1860.77,1432.18 1878.38,1425.49 
  1896,1418.8 1913.61,1413.13 1931.23,1406.82 1948.85,1400.03 1966.46,1393.18 1984.08,1385.51 2001.69,1377.15 2019.31,1369.23 2036.92,1360.09 2054.54,1349.62 
  2072.15,1339.74 2089.77,1330.65 2107.39,1322.06 2125,1313.88 2142.62,1306.32 2160.23,1298.51 2177.85,1292.05 2195.46,1285.38 2213.08,1280.17 2230.69,1274.27 
  2248.31,1267.94 2265.93,1259.51 2283.54,1248.57 2301.16,1236.8 2318.77,1224.51 2336.39,1211.88 2354,1198.41 2371.62,1181.92 2389.23,1165.55 2406.85,1148.72 
  2424.47,1130.55 2442.08,1111.47 2459.7,1093.23 2477.31,1074.92 2494.93,1056.43 2512.54,1039.15 2530.16,1020.19 2547.77,1001.47 2565.39,981.862 2583.01,963.325 
  2600.62,945.076 2618.24,926.834 2635.85,910.431 2653.47,893.569 2671.08,877.675 2688.7,860.417 2706.31,843.704 2723.93,828.373 2741.55,813.483 2759.16,800.411 
  2776.78,788.626 2794.39,778.676 2812.01,766.814 2829.62,754.947 2847.24,744.305 2864.85,733.074 2882.47,724.658 2900.09,717.105 2917.7,710.789 2935.32,704.266 
  2952.93,697.52 2970.55,691.741 2988.16,685.062 3005.78,678.619 3023.39,670.318 3041.01,663.225 3058.63,655.477 3076.24,647.103 3093.86,637.907 3111.47,626.309 
  3129.09,614.568 3146.7,601.693 3164.32,591.048 3181.93,581.823 3199.55,573.174 3217.17,565.977 3234.78,556.042 3252.4,545.745 3270.01,534.191 3287.63,522.489 
  3305.24,512.394 3322.86,501.713 3340.47,491.292 3358.09,481.928 3375.71,472.989 3393.32,462.99 3410.94,452.209 3428.55,442.252 3446.17,433.265 3463.78,427.575 
  3481.4,420.889 3499.01,395.664 3516.63,368.49 3534.25,340.357 3551.86,312.699 3569.48,286.539 3587.09,267.76 3604.71,255.326 3622.32,251.205 3639.94,255.769 
  3657.55,265.516 3675.17,283.155 3692.79,307.741 3710.4,334.146 3728.02,363.048 3745.63,393.37 3763.25,430.335 3780.86,465.772 3798.48,495.043 3816.09,501.46 
  
  "/>
<polyline clip-path="url(#clip9702)" style="stroke:#e26f46; stroke-width:4; stroke-opacity:1; fill:none" points="
  310.599,2466.9 328.215,2455.48 345.831,2444.06 363.446,2432.64 381.062,2421.22 398.677,2409.8 416.293,2398.39 433.908,2386.97 451.524,2375.55 469.139,2364.13 
  486.755,2352.71 504.371,2341.29 521.986,2329.87 539.602,2318.45 557.217,2307.03 574.833,2295.61 592.448,2284.19 610.064,2272.77 627.679,2261.35 645.295,2249.94 
  662.911,2238.52 680.526,2227.1 698.142,2215.68 715.757,2204.26 733.373,2192.84 750.988,2181.42 768.604,2170 786.219,2158.58 803.835,2147.16 821.451,2135.74 
  839.066,2124.32 856.682,2112.9 874.297,2101.49 891.913,2090.07 909.528,2078.65 927.144,2067.23 944.759,2055.81 962.375,2044.39 979.991,2032.97 997.606,2021.55 
  1015.22,2010.13 1032.84,1998.71 1050.45,1987.29 1068.07,1975.87 1085.68,1964.45 1103.3,1953.04 1120.91,1941.62 1138.53,1930.2 1156.15,1918.78 1173.76,1907.36 
  1191.38,1895.94 1208.99,1884.52 1226.61,1873.1 1244.22,1861.68 1261.84,1850.26 1279.45,1838.84 1297.07,1827.42 1314.69,1816 1332.3,1804.58 1349.92,1793.17 
  1367.53,1781.75 1385.15,1770.33 1402.76,1758.91 1420.38,1747.49 1437.99,1736.07 1455.61,1724.65 1473.23,1713.23 1490.84,1701.81 1508.46,1690.39 1526.07,1678.97 
  1543.69,1667.55 1561.3,1656.13 1578.92,1644.72 1596.53,1633.3 1614.15,1621.88 1631.77,1610.46 1649.38,1599.04 1667,1587.62 1684.61,1576.2 1702.23,1564.78 
  1719.84,1553.36 1737.46,1541.94 1755.07,1530.52 1772.69,1519.1 1790.31,1507.68 1807.92,1496.27 1825.54,1484.85 1843.15,1473.43 1860.77,1462.01 1878.38,1450.59 
  1896,1439.17 1913.61,1427.75 1931.23,1416.33 1948.85,1404.91 1966.46,1393.49 1984.08,1382.07 2001.69,1370.65 2019.31,1359.23 2036.92,1347.82 2054.54,1336.4 
  2072.15,1324.98 2089.77,1313.56 2107.39,1302.14 2125,1290.72 2142.62,1279.3 2160.23,1267.88 2177.85,1256.46 2195.46,1245.04 2213.08,1233.62 2230.69,1222.2 
  2248.31,1210.78 2265.93,1199.37 2283.54,1187.95 2301.16,1176.53 2318.77,1165.11 2336.39,1153.69 2354,1142.27 2371.62,1130.85 2389.23,1119.43 2406.85,1108.01 
  2424.47,1096.59 2442.08,1085.17 2459.7,1073.75 2477.31,1062.33 2494.93,1050.91 2512.54,1039.5 2530.16,1028.08 2547.77,1016.66 2565.39,1005.24 2583.01,993.819 
  2600.62,982.399 2618.24,970.98 2635.85,959.561 2653.47,948.142 2671.08,936.722 2688.7,925.303 2706.31,913.884 2723.93,902.465 2741.55,891.045 2759.16,879.626 
  2776.78,868.207 2794.39,856.788 2812.01,845.368 2829.62,833.949 2847.24,822.53 2864.85,811.111 2882.47,799.691 2900.09,788.272 2917.7,776.853 2935.32,765.434 
  2952.93,754.014 2970.55,742.595 2988.16,731.176 3005.78,719.757 3023.39,708.337 3041.01,696.918 3058.63,685.499 3076.24,674.08 3093.86,662.661 3111.47,651.241 
  3129.09,639.822 3146.7,628.403 3164.32,616.984 3181.93,605.564 3199.55,594.145 3217.17,582.726 3234.78,571.307 3252.4,559.887 3270.01,548.468 3287.63,537.049 
  3305.24,525.63 3322.86,514.21 3340.47,502.791 3358.09,491.372 3375.71,479.953 3393.32,468.533 3410.94,457.114 3428.55,445.695 3446.17,434.276 3463.78,422.856 
  3481.4,411.437 3499.01,400.018 3516.63,388.599 3534.25,377.179 3551.86,365.76 3569.48,354.341 3587.09,342.922 3604.71,331.502 3622.32,320.083 3639.94,308.664 
  3657.55,297.245 3675.17,285.825 3692.79,274.406 3710.4,262.987 3728.02,251.568 3745.63,240.148 3763.25,228.729 3780.86,217.31 3798.48,205.891 3816.09,194.471 
  
  "/>
<polygon clip-path="url(#clip9700)" points="
3259.1,486.944 3801.26,486.944 3801.26,305.504 3259.1,305.504 
  " fill="#ffffff" fill-rule="evenodd" fill-opacity="1"/>
<polyline clip-path="url(#clip9700)" style="stroke:#000000; stroke-width:4; stroke-opacity:1; fill:none" points="
  3259.1,486.944 3801.26,486.944 3801.26,305.504 3259.1,305.504 3259.1,486.944 
  "/>
<polyline clip-path="url(#clip9700)" style="stroke:#009af9; stroke-width:4; stroke-opacity:1; fill:none" points="
  3299.1,365.984 3539.1,365.984 
  "/>
<g clip-path="url(#clip9700)">
<text style="fill:#000000; fill-opacity:1; font-family:Times New Roman,TimesNewRoman,Times,Baskerville,Georgia,serif; font-size:53px; text-anchor:start;" transform="rotate(0, 3579.1, 383.484)" x="3579.1" y="383.484">SSA</text>
</g>
<polyline clip-path="url(#clip9700)" style="stroke:#e26f46; stroke-width:4; stroke-opacity:1; fill:none" points="
  3299.1,426.464 3539.1,426.464 
  "/>
<g clip-path="url(#clip9700)">
<text style="fill:#000000; fill-opacity:1; font-family:Times New Roman,TimesNewRoman,Times,Baskerville,Georgia,serif; font-size:53px; text-anchor:start;" transform="rotate(0, 3579.1, 443.964)" x="3579.1" y="443.964">Polyfit</text>
</g>
</svg>
